<svg viewBox="0 0 130 60" fill="none" xmlns="http://www.w3.org/2000/svg">
  <g>
    <path d="M109.944 34.8149H93.0925C87.7742 34.8149 83.4629 39.1263 83.4629 44.4446C83.4629 49.7629 87.7742 54.0742 93.0925 54.0742H109.944C115.263 54.0742 119.574 49.7629 119.574 44.4446C119.574 39.1263 115.263 34.8149 109.944 34.8149Z" fill="#124E58"/>
    <path d="M101.315 37.2222H94.0926C90.1039 37.2222 86.8704 40.4557 86.8704 44.4444C86.8704 48.4331 90.1039 51.6666 94.0926 51.6666H101.315C105.304 51.6666 108.537 48.4331 108.537 44.4444C108.537 40.4557 105.304 37.2222 101.315 37.2222Z" fill="white"/>
    <path d="M6.01168 9.05741V4.7846H26.1429V9.05741H18.6386V29.2964H13.516V9.05741H6.01168ZM27.4535 29.2964V10.9125H32.3966V14.1201H32.5881C32.9232 12.9791 33.4857 12.1174 34.2756 11.5349C35.0656 10.9445 35.9752 10.6492 37.0045 10.6492C37.2598 10.6492 37.5351 10.6652 37.8303 10.6971C38.1256 10.729 38.3849 10.7729 38.6083 10.8288V15.3529C38.3689 15.2811 38.0378 15.2173 37.6149 15.1614C37.192 15.1056 36.805 15.0776 36.4539 15.0776C35.7039 15.0776 35.0337 15.2412 34.4432 15.5684C33.8607 15.8875 33.3979 16.3343 33.0548 16.9088C32.7197 17.4833 32.5522 18.1456 32.5522 18.8956V29.2964H27.4535ZM45.96 29.6435C44.7871 29.6435 43.7418 29.44 42.8242 29.0331C41.9066 28.6182 41.1806 28.0078 40.646 27.2019C40.1193 26.388 39.856 25.3747 39.856 24.1618C39.856 23.1405 40.0435 22.2828 40.4185 21.5886C40.7936 20.8944 41.3042 20.3359 41.9505 19.913C42.5968 19.4901 43.3309 19.1709 44.1528 18.9555C44.9826 18.74 45.8523 18.5884 46.7619 18.5007C47.8311 18.389 48.6929 18.2852 49.3472 18.1895C50.0014 18.0858 50.4762 17.9342 50.7714 17.7347C51.0667 17.5352 51.2143 17.24 51.2143 16.849V16.7772C51.2143 16.0192 50.9749 15.4327 50.4961 15.0178C50.0254 14.6029 49.3551 14.3954 48.4854 14.3954C47.5678 14.3954 46.8377 14.5989 46.2952 15.0058C45.7526 15.4048 45.3935 15.9075 45.218 16.5139L40.5023 16.1309C40.7417 15.0138 41.2125 14.0483 41.9146 13.2345C42.6168 12.4126 43.5224 11.7823 44.6315 11.3434C45.7486 10.8966 47.0412 10.6732 48.5094 10.6732C49.5307 10.6732 50.5081 10.7929 51.4417 11.0322C52.3832 11.2716 53.217 11.6426 53.9431 12.1453C54.6772 12.648 55.2557 13.2943 55.6786 14.0842C56.1015 14.8662 56.3129 15.8037 56.3129 16.8969V29.2964H51.4776V26.7471H51.334C51.0387 27.3216 50.6438 27.8282 50.1491 28.2671C49.6544 28.698 49.0599 29.0371 48.3657 29.2844C47.6715 29.5238 46.8696 29.6435 45.96 29.6435ZM47.4202 26.1247C48.1702 26.1247 48.8325 25.9771 49.407 25.6819C49.9815 25.3787 50.4323 24.9717 50.7595 24.4611C51.0866 23.9504 51.2502 23.3719 51.2502 22.7256V20.7747C51.0906 20.8784 50.8712 20.9742 50.5919 21.062C50.3206 21.1417 50.0134 21.2176 49.6703 21.2894C49.3272 21.3532 48.9841 21.413 48.641 21.4689C48.2979 21.5168 47.9867 21.5607 47.7075 21.6005C47.109 21.6883 46.5864 21.828 46.1396 22.0195C45.6927 22.2109 45.3456 22.4703 45.0983 22.7974C44.8509 23.1166 44.7273 23.5155 44.7273 23.9943C44.7273 24.6885 44.9786 25.2191 45.4813 25.5861C45.9919 25.9452 46.6383 26.1247 47.4202 26.1247ZM68.5748 29.6554C66.6917 29.6554 65.072 29.2565 63.7155 28.4586C62.367 27.6527 61.3298 26.5356 60.6037 25.1074C59.8855 23.6791 59.5265 22.0354 59.5265 20.1763C59.5265 18.2932 59.8895 16.6415 60.6156 15.2213C61.3497 13.793 62.391 12.6799 63.7395 11.882C65.0879 11.0761 66.6917 10.6732 68.5508 10.6732C70.1546 10.6732 71.559 10.9644 72.7638 11.5469C73.9687 12.1294 74.9222 12.9472 75.6243 14.0005C76.3265 15.0537 76.7135 16.2905 76.7853 17.7107H71.9739C71.8382 16.7931 71.4792 16.0551 70.8967 15.4965C70.3222 14.93 69.5682 14.6468 68.6346 14.6468C67.8447 14.6468 67.1545 14.8622 66.5641 15.2931C65.9816 15.716 65.5268 16.3343 65.1996 17.1482C64.8725 17.9621 64.7089 18.9475 64.7089 20.1045C64.7089 21.2774 64.8685 22.2748 65.1877 23.0966C65.5148 23.9185 65.9736 24.5448 66.5641 24.9757C67.1545 25.4066 67.8447 25.622 68.6346 25.622C69.2171 25.622 69.7397 25.5023 70.2025 25.263C70.6733 25.0236 71.0603 24.6765 71.3635 24.2217C71.6747 23.7589 71.8781 23.2043 71.9739 22.558H76.7853C76.7055 23.9624 76.3225 25.1991 75.6363 26.2683C74.9581 27.3295 74.0205 28.1594 72.8237 28.7578C71.6268 29.3562 70.2105 29.6554 68.5748 29.6554ZM84.6696 24.0062L84.6816 17.8903H85.4236L91.3122 10.9125H97.1649L89.2536 20.1523H88.0448L84.6696 24.0062ZM80.0497 29.2964V4.7846H85.1484V29.2964H80.0497ZM91.5396 29.2964L86.1298 21.2894L89.5289 17.6868L97.512 29.2964H91.5396ZM107.287 29.6554C105.396 29.6554 103.769 29.2724 102.404 28.5065C101.048 27.7325 100.002 26.6393 99.2684 25.227C98.5343 23.8068 98.1673 22.1272 98.1673 20.1882C98.1673 18.2972 98.5343 16.6375 99.2684 15.2093C100.002 13.781 101.036 12.6679 102.368 11.87C103.709 11.0721 105.281 10.6732 107.084 10.6732C108.297 10.6732 109.426 10.8687 110.471 11.2596C111.524 11.6426 112.442 12.2211 113.224 12.9951C114.014 13.7691 114.628 14.7425 115.067 15.9154C115.506 17.0804 115.725 18.4448 115.725 20.0087V21.409H100.202V18.2493H110.926C110.926 17.5153 110.766 16.865 110.447 16.2984C110.128 15.7319 109.685 15.2891 109.119 14.9699C108.56 14.6428 107.91 14.4792 107.168 14.4792C106.394 14.4792 105.708 14.6587 105.109 15.0178C104.519 15.3689 104.056 15.8436 103.721 16.4421C103.386 17.0325 103.214 17.6908 103.206 18.4169V21.421C103.206 22.3306 103.374 23.1166 103.709 23.7788C104.052 24.4411 104.535 24.9518 105.157 25.3108C105.779 25.6699 106.517 25.8494 107.371 25.8494C107.938 25.8494 108.456 25.7696 108.927 25.61C109.398 25.4505 109.801 25.2111 110.136 24.8919C110.471 24.5728 110.726 24.1818 110.902 23.719L115.618 24.0302C115.378 25.1632 114.887 26.1526 114.145 26.9984C113.411 27.8362 112.462 28.4905 111.297 28.9613C110.14 29.4241 108.803 29.6554 107.287 29.6554ZM119.053 29.2964V10.9125H123.996V14.1201H124.187C124.522 12.9791 125.085 12.1174 125.875 11.5349C126.665 10.9445 127.574 10.6492 128.604 10.6492C128.859 10.6492 129.134 10.6652 129.429 10.6971C129.725 10.729 129.984 10.7729 130.207 10.8288V15.3529C129.968 15.2811 129.637 15.2173 129.214 15.1614C128.791 15.1056 128.404 15.0776 128.053 15.0776C127.303 15.0776 126.633 15.2412 126.042 15.5684C125.46 15.8875 124.997 16.3343 124.654 16.9088C124.319 17.4833 124.151 18.1456 124.151 18.8956V29.2964H119.053Z" fill="#124E58"/>
    <path d="M10.8334 44.4443C16.1517 44.4443 20.463 40.133 20.463 34.8147C20.463 29.4964 16.1517 25.1851 10.8334 25.1851C5.51507 25.1851 1.20374 29.4964 1.20374 34.8147C1.20374 40.133 5.51507 44.4443 10.8334 44.4443Z" fill="#CCE035"/>
    <path d="M13.7614 54V34.3636H16.7784V54H13.7614ZM15.2955 31.0909C14.7074 31.0909 14.2003 30.8906 13.7741 30.4901C13.3565 30.0895 13.1477 29.608 13.1477 29.0455C13.1477 28.483 13.3565 28.0014 13.7741 27.6009C14.2003 27.2003 14.7074 27 15.2955 27C15.8835 27 16.3864 27.2003 16.804 27.6009C17.2301 28.0014 17.4432 28.483 17.4432 29.0455C17.4432 29.608 17.2301 30.0895 16.804 30.4901C16.3864 30.8906 15.8835 31.0909 15.2955 31.0909ZM22.3043 54V34.3636H25.2191V37.4318H25.4748C25.8839 36.3835 26.5444 35.5696 27.4563 34.9901C28.3683 34.402 29.4634 34.108 30.7418 34.108C32.0373 34.108 33.1154 34.402 33.9762 34.9901C34.8455 35.5696 35.5231 36.3835 36.0089 37.4318H36.2134C36.7163 36.4176 37.4705 35.6122 38.4762 35.0156C39.4819 34.4105 40.6879 34.108 42.0941 34.108C43.8498 34.108 45.2859 34.6577 46.4023 35.7571C47.5188 36.848 48.0771 38.5483 48.0771 40.858V54H45.06V40.858C45.06 39.4091 44.6637 38.3736 43.8711 37.7514C43.0785 37.1293 42.1452 36.8182 41.0714 36.8182C39.6907 36.8182 38.6211 37.2358 37.8626 38.071C37.104 38.8977 36.7248 39.946 36.7248 41.2159V54H33.6566V40.5511C33.6566 39.4347 33.2944 38.5355 32.57 37.8537C31.8455 37.1634 30.9123 36.8182 29.7702 36.8182C28.9862 36.8182 28.2532 37.027 27.5714 37.4446C26.8981 37.8622 26.3526 38.4418 25.935 39.1832C25.5259 39.9162 25.3214 40.7642 25.3214 41.7273V54H22.3043ZM53.5934 54V34.3636H56.5082V37.4318H56.7638C57.1729 36.3835 57.8335 35.5696 58.7454 34.9901C59.6573 34.402 60.7525 34.108 62.0309 34.108C63.3264 34.108 64.4045 34.402 65.2653 34.9901C66.1346 35.5696 66.8121 36.3835 67.2979 37.4318H67.5025C68.0053 36.4176 68.7596 35.6122 69.7653 35.0156C70.771 34.4105 71.9769 34.108 73.3832 34.108C75.1389 34.108 76.5749 34.6577 77.6914 35.7571C78.8079 36.848 79.3661 38.5483 79.3661 40.858V54H76.3491V40.858C76.3491 39.4091 75.9528 38.3736 75.1602 37.7514C74.3675 37.1293 73.4343 36.8182 72.3604 36.8182C70.9798 36.8182 69.9102 37.2358 69.1516 38.071C68.3931 38.8977 68.0139 39.946 68.0139 41.2159V54H64.9457V40.5511C64.9457 39.4347 64.5835 38.5355 63.859 37.8537C63.1346 37.1634 62.2013 36.8182 61.0593 36.8182C60.2752 36.8182 59.5423 37.027 58.8604 37.4446C58.1871 37.8622 57.6417 38.4418 57.2241 39.1832C56.815 39.9162 56.6104 40.7642 56.6104 41.7273V54H53.5934Z" fill="#124E58"/>
  </g>
</svg>
